# 3ds Max Wavefront OBJ Exporter v0.97b - (c)2007 guruware
# File Created: 26.09.2013 03:09:06

mtllib MetalCrate.mtl

#
# object Object01
#

v  -9.0215 3.0000 -8.9995
v  -9.0215 21.0000 -8.9995
v  8.9990 3.0000 -9.0215
v  8.9990 21.0000 -9.0215
v  -9.0215 3.0000 9.0000
v  9.0215 2.9990 8.9990
v  -9.0215 21.0000 9.0000
v  9.0215 21.0000 8.9990
v  12.0000 21.0000 -9.0000
v  11.9990 24.0000 -9.0000
v  11.9990 24.0000 0.0000
v  12.0000 21.0000 0.0000
v  11.9990 24.0000 9.0000
v  12.0000 21.0000 9.0000
v  8.9990 -0.0000 9.0000
v  -9.0000 0.0000 9.0000
v  8.9990 -0.0000 0.0000
v  9.0107 21.0000 -0.0107
v  11.9990 -0.0000 -9.0000
v  12.0000 3.0000 -9.0000
v  12.0000 3.0000 0.0000
v  11.9990 -0.0000 0.0000
v  12.0000 3.0000 9.0000
v  11.9990 -0.0000 9.0000
v  -12.0000 3.0000 -9.0000
v  -12.0000 0.0000 -9.0000
v  -12.0000 0.0000 -0.0000
v  -12.0000 3.0000 -0.0000
v  -12.0000 0.0000 9.0000
v  -12.0000 3.0000 9.0000
v  -9.0215 3.0000 -0.0000
v  -9.0215 21.0000 -0.0000
v  -12.0000 21.0000 -9.0000
v  -12.0000 21.0000 -0.0000
v  -12.0000 21.0000 9.0000
v  -12.0000 24.0000 -9.0000
v  -12.0000 24.0000 -0.0000
v  -12.0000 24.0000 9.0000
v  -9.0000 24.0000 -12.0000
v  -9.0000 21.0000 -12.0000
v  -9.0000 3.0000 -12.0000
v  -9.0000 0.0000 -12.0000
v  -9.0000 24.0000 12.0000
v  -9.0000 21.0000 12.0000
v  -9.0000 3.0000 12.0000
v  -9.0000 0.0000 12.0000
v  -9.0000 24.0000 9.0000
v  8.9990 24.0000 9.0000
v  -9.0000 24.0000 -0.0000
v  8.9990 -0.0000 12.0000
v  8.9990 -0.0000 -9.0000
v  8.9990 -0.0000 -12.0000
v  -9.0000 0.0000 -9.0000
v  -9.0000 0.0000 -0.0000
v  8.9990 24.0000 12.0000
v  -9.0000 24.0000 -9.0000
v  8.9990 24.0000 -9.0000
v  8.9990 24.0000 -12.0000
v  8.9990 24.0000 0.0000
v  -2.8604 12.2471 10.0430
v  -10.8447 20.2314 10.0430
v  -2.8604 12.2471 9.0869
v  -10.8447 20.2314 9.0869
v  -0.0000 9.3867 10.0430
v  0.0000 9.3867 9.0869
v  7.9844 1.4014 10.0430
v  7.9844 1.4014 9.0869
v  0.0000 15.1074 9.0869
v  -7.9844 23.0918 9.0869
v  0.0000 15.1074 10.0430
v  -7.9844 23.0918 10.0430
v  2.8604 12.2471 9.0869
v  2.8604 12.2471 10.0430
v  10.8447 4.2617 9.0869
v  10.8447 4.2617 10.0430
v  8.9990 3.0000 -12.0000
v  8.9990 21.0000 -12.0000
v  8.9990 21.0000 12.0000
v  8.9990 3.0000 12.0000
v  9.0107 3.0000 -0.0107
v  -10.0430 9.3867 -0.0000
v  -10.0430 12.2471 2.8604
v  -10.0430 12.2471 -2.8604
v  -10.0430 15.1074 -0.0000
v  -10.0430 20.2314 -10.8447
v  -10.0430 23.0918 -7.9844
v  -10.0430 1.4014 7.9844
v  -10.0430 4.2617 10.8447
v  -10.0430 4.2617 -10.8447
v  -10.0430 1.4014 -7.9844
v  -9.0869 9.3867 -0.0000
v  -9.0869 1.4014 -7.9844
v  -9.0869 12.2471 -2.8604
v  -9.0869 4.2617 -10.8447
v  -10.0430 23.0918 7.9844
v  -9.0869 15.1074 -0.0000
v  -9.0869 23.0918 7.9844
v  -9.0869 12.2471 2.8604
v  -9.0869 20.2314 10.8447
v  -10.0430 20.2314 10.8447
v  -9.0869 20.2314 -10.8447
v  -9.0869 1.4014 7.9844
v  -9.0869 23.0918 -7.9844
v  -9.0869 4.2617 10.8447
v  0.0000 9.3867 -10.0430
v  -2.8604 12.2471 -10.0430
v  2.8604 12.2471 -10.0430
v  0.0000 15.1074 -10.0430
v  10.8447 20.2314 -10.0430
v  7.9844 23.0918 -10.0430
v  -7.9844 1.4014 -10.0430
v  -10.8447 4.2617 -10.0430
v  10.8447 4.2617 -10.0430
v  7.9844 1.4014 -10.0430
v  0.0000 9.3867 -9.0869
v  7.9844 1.4014 -9.0869
v  2.8604 12.2471 -9.0869
v  10.8447 4.2617 -9.0869
v  -7.9844 23.0918 -10.0430
v  0.0000 15.1074 -9.0869
v  -7.9844 23.0918 -9.0869
v  -2.8604 12.2471 -9.0869
v  -10.8447 20.2314 -9.0869
v  -10.8447 20.2314 -10.0430
v  10.8447 20.2314 -9.0869
v  -7.9844 1.4014 -9.0869
v  7.9844 23.0918 -9.0869
v  -10.8447 4.2617 -9.0869
v  10.0430 9.3867 0.0000
v  10.0430 12.2471 -2.8604
v  10.0430 12.2471 2.8604
v  10.0430 15.1074 0.0000
v  10.0430 20.2314 10.8447
v  10.0430 23.0918 7.9844
v  10.0430 1.4014 -7.9844
v  10.0430 4.2617 -10.8447
v  10.0430 4.2617 10.8447
v  10.0430 1.4014 7.9844
v  9.0869 9.3867 0.0000
v  9.0869 1.4014 7.9844
v  9.0869 12.2471 2.8604
v  9.0869 4.2617 10.8447
v  10.0430 23.0918 -7.9844
v  9.0869 15.1074 0.0000
v  9.0869 23.0918 -7.9844
v  9.0869 12.2471 -2.8604
v  9.0869 20.2314 -10.8447
v  10.0430 20.2314 -10.8447
v  9.0869 20.2314 10.8447
v  9.0869 1.4014 -7.9844
v  9.0869 23.0918 7.9844
v  9.0869 4.2617 -10.8447
v  -10.8447 4.2617 10.0430
v  -7.9844 1.4014 10.0430
v  -7.9844 1.4014 9.0869
v  -10.8447 4.2617 9.0869
v  7.9844 23.0918 10.0430
v  7.9844 23.0918 9.0869
v  10.8447 20.2314 9.0869
v  10.8447 20.2314 10.0430
# 160 vertices

vn -0.0012 0.0000 -1.0000
vn 0.0001 -0.0000 1.0000
vn 1.0000 0.0003 0.0000
vn -0.0000 -1.0000 0.0000
vn -0.0000 -1.0000 -0.0000
vn 1.0000 -0.0003 -0.0000
vn 1.0000 -0.0003 0.0000
vn -1.0000 0.0000 -0.0000
vn 0.0000 1.0000 -0.0000
vn 0.0000 1.0000 0.0000
vn -0.7071 0.0000 -0.7071
vn -0.7071 -0.0000 -0.7071
vn -0.7071 -0.0000 0.7071
vn -0.7071 0.0000 0.7071
vn -0.7071 -0.7071 -0.0000
vn -0.7072 -0.7071 -0.0000
vn 0.7071 0.7071 -0.0000
vn 0.7071 0.7071 0.0000
vn 0.7072 0.7071 0.0000
vn -1.0000 0.0000 0.0000
vn 1.0000 -0.0000 0.0072
vn 1.0000 -0.0000 -0.0072
vn -1.0000 0.0000 -0.0075
vn 0.0000 1.0000 -0.0003
vn 0.0001 1.0000 -0.0003
vn -0.0002 0.0000 1.0000
vn 0.0000 0.0000 -1.0000
vn -0.0072 -0.0000 1.0000
vn -0.0072 0.0000 1.0000
vn 0.0003 0.0000 -1.0000
vn 0.0003 -0.0000 -1.0000
vn 0.0000 -0.0000 -1.0000
vn -0.0000 0.0000 1.0000
vn -0.0000 -0.0000 1.0000
vn 1.0000 -0.0000 -0.0013
vn 1.0000 -0.0000 -0.0012
vn 0.0000 1.0000 0.0001
vn -0.0000 1.0000 0.0000
vn -0.0003 1.0000 0.0000
vn -0.0003 1.0000 -0.0000
vn 0.7070 0.0001 -0.7072
vn 0.7071 0.0002 -0.7071
vn 0.7070 -0.0000 -0.7072
vn 0.7070 -0.0001 -0.7072
vn 0.7071 -0.0000 -0.7071
vn 0.7070 -0.0001 0.7072
vn 0.7071 -0.0002 0.7071
vn 0.7070 -0.0000 0.7072
vn 0.7070 0.0001 0.7072
vn 0.7070 0.0000 0.7072
vn 0.7071 -0.0000 0.7071
vn -1.0000 -0.0000 0.0000
vn 0.0000 -0.7071 0.7072
vn 0.0000 0.7071 -0.7071
vn -0.0000 0.7071 -0.7072
vn -0.0000 0.7071 -0.7071
vn -0.0000 -0.7071 0.7071
vn -0.0000 -0.7071 -0.7071
vn -0.0000 -0.7071 -0.7072
vn -0.0000 0.7071 0.7071
vn 0.0000 0.7071 0.7071
vn -0.0000 0.7071 0.7072
vn 0.7071 -0.7071 0.0000
vn -0.7071 0.7071 -0.0000
vn 1.0000 -0.0000 0.0000
vn 1.0000 0.0000 -0.0000
vn 0.0000 -0.7071 -0.7071
vn 0.0000 0.7071 -0.7072
vn -0.7072 0.7071 -0.0000
vn -0.7071 0.7071 0.0000
# 70 vertex normals

vt 0.9187 0.1624 0.0000
vt 0.9187 0.5054 0.0000
vt 0.4922 0.1624 0.0000
vt 0.4922 0.5054 0.0000
vt 0.9792 0.5671 0.0000
vt 0.9792 0.6421 0.0000
vt 0.7053 0.6421 0.0000
vt 0.7053 0.5671 0.0000
vt 0.4243 0.6421 0.0000
vt 0.4243 0.5671 0.0000
vt 0.1167 0.0974 0.0000
vt 0.1167 0.5640 0.0000
vt 0.3940 0.0974 0.0000
vt 0.7053 0.5054 0.0000
vt 0.9792 0.0198 0.0000
vt 0.9792 0.1006 0.0000
vt 0.7053 0.1006 0.0000
vt 0.7053 0.0198 0.0000
vt 0.4243 0.1006 0.0000
vt 0.4243 0.0198 0.0000
vt 0.7053 0.1624 0.0000
vt 0.4243 0.6418 0.0000
vt 0.7053 0.6418 0.0000
vt 0.9792 0.6418 0.0000
vt 0.8008 0.8584 0.0000
vt 0.8008 0.9822 0.0000
vt 0.7085 0.9822 0.0000
vt 0.7085 0.8584 0.0000
vt 0.1548 0.9822 0.0000
vt 0.1548 0.8584 0.0000
vt 0.0625 0.9822 0.0000
vt 0.0625 0.8584 0.0000
vt 0.1167 0.6418 0.0000
vt 0.0244 0.5640 0.0000
vt 0.0244 0.0974 0.0000
vt 0.1167 0.0195 0.0000
vt 0.3940 0.0195 0.0000
vt 0.0242 0.0974 0.0000
vt 0.0242 0.5640 0.0000
vt 0.3940 0.5640 0.0000
vt 0.3940 0.6418 0.0000
vt 0.6765 0.6958 0.0000
vt 0.0754 0.6958 0.0000
vt 0.6765 0.6587 0.0000
vt 0.0754 0.6587 0.0000
vt 0.6765 0.8040 0.0000
vt 0.6765 0.8413 0.0000
vt 0.0752 0.8040 0.0000
vt 0.0752 0.8413 0.0000
vt 0.0754 0.8413 0.0000
vt 0.0754 0.8040 0.0000
vt 0.6765 0.6584 0.0000
vt 0.0752 0.6584 0.0000
vt 0.0752 0.6958 0.0000
vt 0.9175 0.6543 0.0000
vt 0.9175 0.8467 0.0000
vt 0.7234 0.6543 0.0000
vt 0.7234 0.8467 0.0000
# 58 texture coords

g Object01
usemtl Material__30
s 1
f 1/1/1 2/2/1 3/3/1 
f 3/3/1 2/2/1 4/4/1 
f 5/3/2 6/1/2 7/4/2 
f 7/4/2 6/1/2 8/2/2 
f 9/5/3 10/6/3 11/7/3 
f 9/5/3 11/7/3 12/8/3 
f 12/8/3 11/7/3 13/9/3 
f 12/8/3 13/9/3 14/10/3 
f 15/11/4 16/12/5 17/13/4 
s 2
f 4/2/5 9/5/5 12/8/5 
f 4/2/5 12/8/5 18/14/5 
f 18/14/5 12/8/5 14/10/5 
f 18/14/5 14/10/5 8/4/5 
f 19/15/6 20/16/6 21/17/7 
f 19/15/6 21/17/7 22/18/7 
f 22/18/7 21/17/7 23/19/7 
f 22/18/7 23/19/7 24/20/7 
f 25/19/8 26/20/8 27/18/8 
f 25/19/8 27/18/8 28/17/8 
f 28/17/8 27/18/8 29/15/8 
f 28/17/8 29/15/8 30/16/8 
s 4
f 1/3/9 25/19/9 28/17/9 
f 1/3/9 28/17/9 31/21/9 
f 31/21/9 28/17/9 30/16/10 
f 31/21/9 30/16/10 5/1/10 
s 2
f 2/4/8 1/3/8 31/21/8 
f 2/4/8 31/21/8 32/14/8 
f 32/14/8 31/21/8 5/1/8 
f 32/14/8 5/1/8 7/2/8 
s 4
f 33/10/5 2/4/5 32/14/5 
f 33/10/5 32/14/5 34/8/5 
f 34/8/5 32/14/5 7/2/5 
f 34/8/5 7/2/5 35/5/5 
s 1
f 36/22/8 33/10/8 34/8/8 
f 36/22/8 34/8/8 37/23/8 
f 37/23/8 34/8/8 35/5/8 
f 37/23/8 35/5/8 38/24/8 
s 8
f 36/25/11 39/26/11 40/27/11 
f 36/25/11 40/27/11 33/28/11 
f 33/28/11 40/27/11 41/29/12 
f 33/28/11 41/29/12 25/30/11 
f 25/30/11 41/29/12 42/31/12 
f 25/30/11 42/31/12 26/32/11 
f 43/25/13 38/26/14 35/27/14 
f 43/25/13 35/27/14 44/28/14 
f 44/28/14 35/27/14 30/29/14 
f 44/28/14 30/29/14 45/30/14 
f 45/30/14 30/29/14 29/31/14 
f 45/30/14 29/31/14 46/32/13 
s 2
f 47/11/10 48/12/10 49/13/10 
s 1
f 29/33/5 16/12/5 46/34/5 
f 46/34/5 16/12/5 15/11/4 
f 46/34/5 15/11/4 50/35/4 
f 50/35/4 15/11/4 24/36/4 
f 24/36/4 15/11/4 17/13/4 
f 24/36/4 17/13/4 22/37/4 
f 22/37/4 17/13/4 51/11/5 
f 22/37/4 51/11/5 19/36/5 
f 19/36/5 51/11/5 52/38/5 
f 52/38/5 51/11/5 53/12/4 
f 52/38/5 53/12/4 42/39/4 
f 42/39/4 53/12/4 26/33/4 
f 26/33/4 53/12/4 54/40/5 
f 26/33/4 54/40/5 27/41/5 
f 27/41/5 54/40/5 29/33/5 
f 29/33/5 54/40/5 16/12/5 
f 16/12/5 54/40/5 17/13/4 
f 17/13/4 54/40/5 53/12/4 
f 17/13/4 53/12/4 51/11/5 
s 2
f 13/33/10 48/12/10 55/34/10 
f 55/34/10 48/12/10 47/11/10 
f 55/34/10 47/11/10 43/35/10 
f 43/35/10 47/11/10 38/36/10 
f 38/36/10 47/11/10 49/13/10 
f 38/36/10 49/13/10 37/37/10 
f 37/37/10 49/13/10 56/11/10 
f 37/37/10 56/11/10 36/36/10 
f 36/36/10 56/11/10 39/38/10 
f 39/38/10 56/11/10 57/12/10 
f 39/38/10 57/12/10 58/39/10 
f 58/39/10 57/12/10 10/33/10 
f 10/33/10 57/12/10 59/40/10 
f 10/33/10 59/40/10 11/41/10 
f 11/41/10 59/40/10 13/33/10 
f 13/33/10 59/40/10 48/12/10 
f 48/12/10 59/40/10 49/13/10 
f 49/13/10 59/40/10 57/12/10 
f 49/13/10 57/12/10 56/11/10 
s 1
f 60/42/15 61/43/15 62/44/15 
f 62/44/15 61/43/15 63/45/15 
f 64/46/16 65/47/16 66/48/16 
f 66/48/16 65/47/16 67/49/16 
f 68/47/17 69/50/17 70/46/17 
f 70/46/17 69/50/17 71/51/17 
f 72/52/17 73/42/17 74/53/18 
f 74/53/18 73/42/17 75/54/19 
s 16
f 76/19/10 41/16/10 3/3/10 
f 3/3/10 41/16/10 1/1/9 
s 4
f 77/10/20 76/19/20 4/4/20 
f 4/4/20 76/19/20 3/3/20 
s 16
f 40/5/4 77/10/5 2/2/5 
f 2/2/5 77/10/5 4/4/5 
s 32
f 41/16/21 40/5/21 1/1/21 
f 1/1/21 40/5/21 2/2/21 
s 16
f 44/10/22 45/19/22 7/4/22 
f 7/4/22 45/19/22 5/3/22 
s 32
f 78/5/4 44/10/4 8/2/4 
f 8/2/4 44/10/4 7/4/5 
s 4
f 79/16/23 78/5/23 6/1/23 
f 6/1/23 78/5/23 8/2/23 
s 32
f 45/19/10 79/16/24 5/3/9 
f 5/3/9 79/16/24 6/1/25 
s 64
f 33/10/26 25/19/26 2/4/26 
f 2/4/26 25/19/26 1/3/26 
f 30/16/27 35/5/27 5/1/27 
f 5/1/27 35/5/27 7/2/27 
s 8
f 20/16/28 9/5/28 3/1/28 
f 3/1/29 9/5/28 4/2/29 
f 14/10/30 23/19/30 8/4/30 
f 8/4/31 23/19/30 6/3/31 
s 1
f 40/5/27 39/6/27 77/10/27 
f 77/10/27 39/6/27 58/9/27 
s 2
f 42/15/27 41/16/32 52/20/32 
f 52/20/32 41/16/32 76/19/32 
s 1
f 43/22/33 44/10/34 55/24/34 
f 55/24/34 44/10/34 78/5/34 
s 2
f 45/19/33 46/20/33 79/16/33 
f 79/16/33 46/20/33 50/15/33 
s 64
f 3/1/35 4/2/35 18/14/36 
f 3/1/35 18/14/36 80/21/36 
f 80/21/36 18/14/36 8/4/36 
f 80/21/36 8/4/36 6/3/36 
s 128
f 20/16/9 3/1/9 80/21/37 
f 20/16/9 80/21/37 21/17/38 
f 21/17/38 80/21/37 6/3/39 
f 21/17/38 6/3/39 23/19/40 
s 32
f 58/25/41 10/26/42 9/27/41 
f 58/25/41 9/27/41 77/28/43 
f 77/28/43 9/27/41 20/29/44 
f 77/28/43 20/29/44 76/30/43 
f 76/30/43 20/29/44 19/31/44 
f 76/30/43 19/31/44 52/32/45 
s 16
f 50/31/46 24/32/47 23/30/46 
f 50/31/46 23/30/46 79/29/48 
f 79/29/48 23/30/46 14/28/49 
f 79/29/48 14/28/49 78/27/50 
f 78/27/50 14/28/49 13/25/49 
f 78/27/50 13/25/49 55/26/51 
s 1
f 81/55/8 82/56/8 83/57/8 
f 83/57/8 82/56/8 84/58/8 
f 83/42/8 84/46/8 85/43/8 
f 85/43/8 84/46/8 86/51/8 
f 87/48/8 88/54/8 81/46/8 
f 81/46/8 88/54/8 82/42/8 
f 83/46/8 89/48/52 81/42/8 
f 81/42/8 89/48/52 90/54/52 
s 2
f 81/42/53 90/54/53 91/52/53 
f 91/52/53 90/54/53 92/53/53 
f 93/47/54 94/49/55 83/46/54 
f 83/46/54 94/49/55 89/48/55 
f 84/42/56 95/43/56 96/44/56 
f 96/44/56 95/43/56 97/45/56 
f 98/47/57 99/50/57 82/46/57 
f 82/46/57 99/50/57 100/51/57 
s 1
f 82/46/8 100/51/52 84/42/8 
f 84/42/8 100/51/52 95/43/52 
s 4
f 83/42/58 85/43/58 93/44/58 
f 93/44/58 85/43/58 101/45/58 
f 81/46/58 91/47/59 87/48/59 
f 87/48/59 91/47/59 102/49/59 
f 96/47/60 103/50/61 84/46/60 
f 84/46/60 103/50/61 86/51/61 
f 98/52/62 82/42/62 104/53/62 
f 104/53/62 82/42/62 88/54/62 
s 1
f 105/55/27 106/56/27 107/57/32 
f 107/57/32 106/56/27 108/58/27 
f 107/42/32 108/46/27 109/43/32 
f 109/43/32 108/46/27 110/51/32 
f 111/48/32 112/54/32 105/46/27 
f 105/46/27 112/54/32 106/42/27 
f 107/46/32 113/48/27 105/42/27 
f 105/42/27 113/48/27 114/54/27 
s 2
f 105/42/16 114/54/16 115/52/16 
f 115/52/16 114/54/16 116/53/16 
f 117/47/19 118/49/19 107/46/19 
f 107/46/19 118/49/19 113/48/19 
f 108/42/18 119/43/18 120/44/18 
f 120/44/18 119/43/18 121/45/18 
f 122/47/15 123/50/15 106/46/15 
f 106/46/15 123/50/15 124/51/15 
s 1
f 106/46/27 124/51/27 108/42/27 
f 108/42/27 124/51/27 119/43/27 
s 4
f 107/42/63 109/43/63 117/44/63 
f 117/44/63 109/43/63 125/45/63 
f 105/46/63 115/47/63 111/48/63 
f 111/48/63 115/47/63 126/49/63 
f 120/47/64 127/50/64 108/46/64 
f 108/46/64 127/50/64 110/51/64 
f 122/52/64 106/42/64 128/53/64 
f 128/53/64 106/42/64 112/54/64 
s 1
f 129/55/65 130/56/65 131/57/65 
f 131/57/65 130/56/65 132/58/65 
f 131/42/65 132/46/65 133/43/66 
f 133/43/66 132/46/65 134/51/66 
f 135/48/66 136/54/66 129/46/65 
f 129/46/65 136/54/66 130/42/65 
f 131/46/65 137/48/65 129/42/65 
f 129/42/65 137/48/65 138/54/65 
s 2
f 129/42/58 138/54/59 139/52/59 
f 139/52/59 138/54/59 140/53/59 
f 141/47/60 142/49/60 131/46/60 
f 131/46/60 142/49/60 137/48/60 
f 132/42/60 143/43/61 144/44/60 
f 144/44/60 143/43/61 145/45/61 
f 146/47/67 147/50/67 130/46/67 
f 130/46/67 147/50/67 148/51/67 
s 1
f 130/46/65 148/51/65 132/42/65 
f 132/42/65 148/51/65 143/43/65 
s 4
f 131/42/57 133/43/57 141/44/57 
f 141/44/57 133/43/57 149/45/57 
f 129/46/57 139/47/57 135/48/53 
f 135/48/53 139/47/57 150/49/53 
f 144/47/56 151/50/56 132/46/56 
f 132/46/56 151/50/56 134/51/56 
f 146/52/68 130/42/68 152/53/55 
f 152/53/55 130/42/68 136/54/56 
s 2
f 64/55/34 73/56/33 60/57/34 
f 60/57/34 73/56/33 70/58/34 
f 60/42/34 70/46/34 61/43/34 
f 61/43/34 70/46/34 71/51/34 
f 66/48/34 75/54/34 64/46/34 
f 64/46/34 75/54/34 73/42/33 
f 60/46/34 153/48/33 64/42/34 
f 64/42/34 153/48/33 154/54/33 
s 4
f 64/42/63 154/54/63 65/52/63 
f 65/52/63 154/54/63 155/53/63 
f 62/47/69 156/49/69 60/46/69 
f 60/46/69 156/49/69 153/48/69 
f 70/42/70 157/43/70 68/44/70 
f 68/44/70 157/43/70 158/45/70 
f 72/47/63 159/50/63 73/46/63 
f 73/46/63 159/50/63 160/51/63 
s 2
f 73/46/33 160/51/33 70/42/34 
f 70/42/34 160/51/33 157/43/33 
# 0 polygons - 244 triangles

